<svg xmlns="http://www.w3.org/2000/svg" viewBox="0 0 45 35" width="45" height="35" shape-rendering="crispEdges">
  <rect width="45" height="35" fill="#0A0A0A"/>
  <rect x="5" y="0" width="5" height="5" fill="#777777"/><rect x="10" y="0" width="5" height="5" fill="#F0EEE9"/><rect x="25" y="0" width="5" height="5" fill="#F0EEE9"/><rect x="30" y="0" width="5" height="5" fill="#777777"/><rect x="0" y="5" width="5" height="5" fill="#777777"/><rect x="5" y="5" width="5" height="5" fill="#777777"/><rect x="10" y="5" width="5" height="5" fill="#777777"/><rect x="15" y="5" width="5" height="5" fill="#777777"/><rect x="20" y="5" width="5" height="5" fill="#777777"/><rect x="25" y="5" width="5" height="5" fill="#777777"/><rect x="30" y="5" width="5" height="5" fill="#777777"/><rect x="35" y="5" width="5" height="5" fill="#777777"/><rect x="40" y="5" width="5" height="5" fill="#777777"/><rect x="0" y="10" width="5" height="5" fill="#777777"/><rect x="5" y="10" width="5" height="5" fill="#777777"/><rect x="10" y="10" width="5" height="5" fill="#111111"/><rect x="15" y="10" width="5" height="5" fill="#BBBBBB"/><rect x="20" y="10" width="5" height="5" fill="#BBBBBB"/><rect x="25" y="10" width="5" height="5" fill="#BBBBBB"/><rect x="30" y="10" width="5" height="5" fill="#111111"/><rect x="35" y="10" width="5" height="5" fill="#777777"/><rect x="40" y="10" width="5" height="5" fill="#777777"/><rect x="0" y="15" width="5" height="5" fill="#777777"/><rect x="5" y="15" width="5" height="5" fill="#777777"/><rect x="10" y="15" width="5" height="5" fill="#777777"/><rect x="15" y="15" width="5" height="5" fill="#777777"/><rect x="20" y="15" width="5" height="5" fill="#BBBBBB"/><rect x="25" y="15" width="5" height="5" fill="#777777"/><rect x="30" y="15" width="5" height="5" fill="#777777"/><rect x="35" y="15" width="5" height="5" fill="#777777"/><rect x="40" y="15" width="5" height="5" fill="#777777"/><rect x="0" y="20" width="5" height="5" fill="#777777"/><rect x="5" y="20" width="5" height="5" fill="#777777"/><rect x="10" y="20" width="5" height="5" fill="#777777"/><rect x="15" y="20" width="5" height="5" fill="#777777"/><rect x="20" y="20" width="5" height="5" fill="#777777"/><rect x="25" y="20" width="5" height="5" fill="#777777"/><rect x="30" y="20" width="5" height="5" fill="#777777"/><rect x="35" y="20" width="5" height="5" fill="#777777"/><rect x="40" y="20" width="5" height="5" fill="#777777"/><rect x="0" y="25" width="5" height="5" fill="#777777"/><rect x="5" y="25" width="5" height="5" fill="#BBBBBB"/><rect x="10" y="25" width="5" height="5" fill="#777777"/><rect x="15" y="25" width="5" height="5" fill="#BBBBBB"/><rect x="20" y="25" width="5" height="5" fill="#777777"/><rect x="25" y="25" width="5" height="5" fill="#BBBBBB"/><rect x="30" y="25" width="5" height="5" fill="#777777"/><rect x="35" y="25" width="5" height="5" fill="#777777"/><rect x="40" y="25" width="5" height="5" fill="#777777"/><rect x="10" y="30" width="5" height="5" fill="#777777"/><rect x="15" y="30" width="5" height="5" fill="#777777"/><rect x="20" y="30" width="5" height="5" fill="#777777"/><rect x="25" y="30" width="5" height="5" fill="#777777"/><rect x="30" y="30" width="5" height="5" fill="#777777"/>
</svg>