<svg xmlns="http://www.w3.org/2000/svg" viewBox="0 0 60 60" width="60" height="60" shape-rendering="crispEdges">
  <rect width="60" height="60" fill="#0A0A0A"/>
  <rect x="6" y="0" width="6" height="6" fill="#FF3333"/><rect x="30" y="0" width="6" height="6" fill="#44CC55"/><rect x="54" y="0" width="6" height="6" fill="#4488FF"/><rect x="18" y="6" width="6" height="6" fill="#FFE033"/><rect x="42" y="6" width="6" height="6" fill="#FF8844"/><rect x="18" y="24" width="6" height="6" fill="#F0EEE9"/><rect x="24" y="24" width="6" height="6" fill="#F0EEE9"/><rect x="30" y="24" width="6" height="6" fill="#F0EEE9"/><rect x="36" y="24" width="6" height="6" fill="#F0EEE9"/><rect x="12" y="30" width="6" height="6" fill="#F0EEE9"/><rect x="18" y="30" width="6" height="6" fill="#111111"/><rect x="24" y="30" width="6" height="6" fill="#111111"/><rect x="30" y="30" width="6" height="6" fill="#111111"/><rect x="36" y="30" width="6" height="6" fill="#111111"/><rect x="42" y="30" width="6" height="6" fill="#F0EEE9"/><rect x="18" y="36" width="6" height="6" fill="#F0EEE9"/><rect x="24" y="36" width="6" height="6" fill="#F0EEE9"/><rect x="30" y="36" width="6" height="6" fill="#F0EEE9"/><rect x="36" y="36" width="6" height="6" fill="#F0EEE9"/><rect x="12" y="42" width="6" height="6" fill="#F0EEE9"/><rect x="18" y="42" width="6" height="6" fill="#F0EEE9"/><rect x="24" y="42" width="6" height="6" fill="#F0EEE9"/><rect x="30" y="42" width="6" height="6" fill="#F0EEE9"/><rect x="36" y="42" width="6" height="6" fill="#F0EEE9"/><rect x="42" y="42" width="6" height="6" fill="#F0EEE9"/><rect x="12" y="48" width="6" height="6" fill="#F0EEE9"/><rect x="24" y="48" width="6" height="6" fill="#F0EEE9"/><rect x="30" y="48" width="6" height="6" fill="#F0EEE9"/><rect x="36" y="48" width="6" height="6" fill="#F0EEE9"/><rect x="42" y="48" width="6" height="6" fill="#F0EEE9"/><rect x="12" y="54" width="6" height="6" fill="#F0EEE9"/><rect x="18" y="54" width="6" height="6" fill="#F0EEE9"/><rect x="24" y="54" width="6" height="6" fill="#F0EEE9"/><rect x="30" y="54" width="6" height="6" fill="#F0EEE9"/><rect x="36" y="54" width="6" height="6" fill="#F0EEE9"/><rect x="42" y="54" width="6" height="6" fill="#F0EEE9"/>
</svg>